<svg width="140" height="31" viewBox="0 0 140 31" fill="none" xmlns="http://www.w3.org/2000/svg">
<path d="M0.0681819 30V8.18182H3.30682V11.5909H3.59091C4.04545 10.4261 4.77936 9.52178 5.79261 8.87784C6.80587 8.22443 8.02273 7.89773 9.44318 7.89773C10.8826 7.89773 12.0805 8.22443 13.0369 8.87784C14.0028 9.52178 14.7557 10.4261 15.2955 11.5909H15.5227C16.0814 10.464 16.9195 9.56913 18.0369 8.90625C19.1544 8.2339 20.4943 7.89773 22.0568 7.89773C24.0076 7.89773 25.6032 8.50852 26.8438 9.73011C28.0843 10.9422 28.7045 12.8314 28.7045 15.3977V30H25.3523V15.3977C25.3523 13.7879 24.9119 12.6373 24.0312 11.946C23.1506 11.2547 22.1136 10.9091 20.9205 10.9091C19.3864 10.9091 18.1979 11.3731 17.3551 12.3011C16.5123 13.2197 16.0909 14.3845 16.0909 15.7955V30H12.6818V15.0568C12.6818 13.8163 12.2794 12.8172 11.4744 12.0597C10.6695 11.2926 9.63258 10.9091 8.36364 10.9091C7.49242 10.9091 6.67803 11.1411 5.92045 11.6051C5.17235 12.0691 4.56629 12.7131 4.10227 13.5369C3.64773 14.3513 3.42045 15.2936 3.42045 16.3636V30H0.0681819ZM54.9861 16.875V30H51.6338V0.90909H54.9861V11.5909H55.2702C55.7815 10.464 56.5486 9.56913 57.5713 8.90625C58.6035 8.2339 59.9766 7.89773 61.6906 7.89773C63.1774 7.89773 64.4795 8.19602 65.5969 8.79261C66.7143 9.37973 67.5808 10.2841 68.1963 11.5057C68.8213 12.7178 69.1338 14.2614 69.1338 16.1364V30H65.7815V16.3636C65.7815 14.6307 65.3317 13.2907 64.4321 12.3438C63.542 11.3873 62.3062 10.9091 60.7247 10.9091C59.6262 10.9091 58.6414 11.1411 57.7702 11.6051C56.9084 12.0691 56.2266 12.7462 55.7247 13.6364C55.2323 14.5265 54.9861 15.6061 54.9861 16.875ZM107.521 13.0682L104.51 13.9205C104.32 13.4186 104.041 12.9309 103.672 12.4574C103.312 11.9744 102.819 11.5767 102.194 11.2642C101.569 10.9517 100.769 10.7955 99.7939 10.7955C98.4587 10.7955 97.346 11.1032 96.4558 11.7188C95.5751 12.3248 95.1348 13.0966 95.1348 14.0341C95.1348 14.8674 95.4378 15.5256 96.0439 16.0085C96.65 16.4915 97.5969 16.8939 98.8848 17.2159L102.123 18.0114C104.074 18.4848 105.528 19.2093 106.484 20.1847C107.441 21.1506 107.919 22.3958 107.919 23.9205C107.919 25.1705 107.559 26.2879 106.839 27.2727C106.129 28.2576 105.135 29.0341 103.856 29.6023C102.578 30.1705 101.091 30.4545 99.3962 30.4545C97.1708 30.4545 95.3289 29.9716 93.8706 29.0057C92.4123 28.0398 91.489 26.6288 91.1007 24.7727L94.2825 23.9773C94.5856 25.1515 95.1585 26.0322 96.0013 26.6193C96.8535 27.2064 97.9662 27.5 99.3393 27.5C100.902 27.5 102.142 27.1686 103.061 26.5057C103.989 25.8333 104.453 25.0284 104.453 24.0909C104.453 23.3333 104.188 22.6989 103.658 22.1875C103.127 21.6667 102.313 21.2784 101.214 21.0227L97.578 20.1705C95.5799 19.697 94.1121 18.9631 93.1746 17.9688C92.2465 16.965 91.7825 15.7102 91.7825 14.2045C91.7825 12.9735 92.1282 11.8845 92.8195 10.9375C93.5202 9.99053 94.4719 9.24716 95.6746 8.70739C96.8867 8.16761 98.2598 7.89773 99.7939 7.89773C101.953 7.89773 103.648 8.37121 104.879 9.31818C106.12 10.2652 107 11.5152 107.521 13.0682ZM139.254 8.18182V11.0227H127.947V8.18182H139.254ZM131.242 2.95455H134.595V23.75C134.595 24.697 134.732 25.4072 135.007 25.8807C135.291 26.3447 135.65 26.6572 136.086 26.8182C136.531 26.9697 137 27.0455 137.492 27.0455C137.862 27.0455 138.165 27.0265 138.401 26.9886C138.638 26.9413 138.828 26.9034 138.97 26.875L139.651 29.8864C139.424 29.9716 139.107 30.0568 138.7 30.142C138.293 30.2367 137.776 30.2841 137.151 30.2841C136.204 30.2841 135.276 30.0805 134.367 29.6733C133.468 29.2661 132.72 28.6458 132.123 27.8125C131.536 26.9792 131.242 25.928 131.242 24.6591V2.95455Z" fill="white"/>
</svg>
